<?xml version="1.0" encoding="utf-8"?>
<!-- Generator: Adobe Illustrator 22.0.1, SVG Export Plug-In . SVG Version: 6.00 Build 0)  -->
<svg version="1.1" xmlns="http://www.w3.org/2000/svg" xmlns:xlink="http://www.w3.org/1999/xlink" x="0px" y="0px"
	 viewBox="0 0 896.6 155.9" style="enable-background:new 0 0 896.6 155.9;" xml:space="preserve">
<style type="text/css">
	.st0{fill:none;stroke:#989798;stroke-linejoin:round;stroke-miterlimit:10;}
	.st1{fill:#1B75BC;}
	.st2{font-family:'DIN-Regular';}
	.st3{font-size:13px;}
	.st4{fill:#010101;}
	.st5{fill:#2B3990;}
	.st6{font-size:18px;}
	.st7{fill:#808285;}
</style>
<g id="Layer_1">
	<line class="st0" x1="114.3" y1="155.9" x2="114.3" y2="0"/>
</g>
<g id="info">
	<g id="MN_x5F_">
		<text transform="matrix(1 0 0 1 519.5576 44.1521)"><tspan x="0" y="0" class="st1 st2 st3">12 Impact Schools</tspan><tspan x="0" y="15.6" class="st4 st2 st3">346 Public &amp; Charter Schools</tspan></text>
	</g>
	<g id="QNS_x5F_">
		<text transform="matrix(1 0 0 1 519.5576 10.2982)"><tspan x="0" y="0" class="st1 st2 st3">17 Impact Schools</tspan><tspan x="0" y="15.6" class="st4 st2 st3">341 Public &amp; Charter Schools</tspan></text>
	</g>
	<g id="SI_x5F_">
		<text transform="matrix(1 0 0 1 210.0262 104.2599)"><tspan x="0" y="0" class="st5 st2 st3">6 Impact Schools</tspan><tspan x="0" y="15.6" class="st4 st2 st3">73 Public &amp; Charter Schools</tspan></text>
	</g>
	<g id="BX_x5F_">
		<text transform="matrix(1 0 0 1 575.198 136.3546)"><tspan x="0" y="0" class="st1 st2 st3">4 Impact Schools</tspan><tspan x="0" y="15.6" class="st4 st2 st3">409 Public &amp; Charter Schools</tspan></text>
	</g>
	<g id="BK_x5F_">
		<text transform="matrix(1 0 0 1 723.9482 72.1893)"><tspan x="0" y="0" class="st1 st2 st3">11 Impact Schools</tspan><tspan x="0" y="15.6" class="st4 st2 st3">538 Public &amp; Charter Schools</tspan></text>
	</g>
</g>
<g id="boro">
	<g id="BK">
		<text transform="matrix(1 0 0 1 36.297 82.4461)" class="st4 st2 st6">Brooklyn </text>
		<rect x="113.5" y="69.2" class="st7" width="594.4" height="15.1"/>
		<rect x="707.8" y="69.2" class="st1" width="10.4" height="15.1"/>
	</g>
	<g id="BX">
		<text transform="matrix(1 0 0 1 58.8332 146.4324)" class="st4 st2 st6">Bronx </text>
		<rect x="113.5" y="132.1" class="st7" width="451" height="17.2"/>
		<rect x="564.4" y="132.1" class="st1" width="5.2" height="17.2"/>
	</g>
	<g id="SI">
		<text transform="matrix(1 0 0 1 3.0026 114.0424)" class="st4 st2 st6">Staten Island </text>
		<rect x="113.5" y="99.7" class="st7" width="80.8" height="17.2"/>
		<rect x="194.3" y="99.7" class="st1" width="7.8" height="17.2"/>
	</g>
	<g id="QNS">
		<text transform="matrix(1 0 0 1 48.0949 20.0637)" class="st4 st2 st6">Queens </text>
		<rect x="113.5" y="6.8" class="st7" width="375.4" height="15.1"/>
		<rect x="488.8" y="6.8" class="st1" width="20.9" height="15.1"/>
	</g>
	<g id="MN">
		<text transform="matrix(1 0 0 1 22.6123 51.2632)" class="st4 st2 st6">Manhattan </text>
		<rect x="113.5" y="36.9" class="st7" width="383.2" height="17.2"/>
		<rect x="496.7" y="36.9" class="st1" width="13" height="17.2"/>
	</g>
</g>
</svg>
