<?xml version="1.0" encoding="utf-8"?>
<!-- Generator: Adobe Illustrator 22.0.1, SVG Export Plug-In . SVG Version: 6.00 Build 0)  -->
<svg version="1.1" xmlns="http://www.w3.org/2000/svg" xmlns:xlink="http://www.w3.org/1999/xlink" x="0px" y="0px"
	 viewBox="0 0 896.6 155.9" style="enable-background:new 0 0 896.6 155.9;" xml:space="preserve">
<style type="text/css">
	.st0{fill:none;stroke:#989798;stroke-linejoin:round;stroke-miterlimit:10;}
	.st1{fill:#27AAE1;}
	.st2{font-family:'DIN-Regular';}
	.st3{font-size:12px;}
	.st4{fill:#010101;}
	.st5{fill:#1B75BC;}
	.st6{fill:#2B3990;}
	.st7{font-size:21.517px;}
	.st8{fill:#808285;}
</style>
<g id="Layer_1">
	<line class="st0" x1="130.9" y1="155.9" x2="130.9" y2="0"/>
</g>
<g id="info">
	<g id="MN_x5F_">
		<text transform="matrix(1 0 0 1 536.1646 41.1497)"><tspan x="0" y="0" class="st1 st2 st3">12 Impact Schools</tspan><tspan x="0" y="14.4" class="st4 st2 st3">346 Public &amp; Charter Schools</tspan></text>
	</g>
	<g id="QNS_x5F_">
		<text transform="matrix(1 0 0 1 536.1646 10.2982)"><tspan x="0" y="0" class="st5 st2 st3">17 Impact Schools</tspan><tspan x="0" y="14.4" class="st4 st2 st3">341 Public &amp; Charter Schools</tspan></text>
	</g>
	<g id="SI_x5F_">
		<text transform="matrix(1 0 0 1 226.6331 104.2599)"><tspan x="0" y="0" class="st6 st2 st3">6 Impact Schools</tspan><tspan x="0" y="14.4" class="st4 st2 st3">73 Public &amp; Charter Schools</tspan></text>
	</g>
	<g id="BX_x5F_">
		<text transform="matrix(1 0 0 1 591.805 136.3546)"><tspan x="0" y="0" class="st5 st2 st3">4 Impact Schools</tspan><tspan x="0" y="14.4" class="st4 st2 st3">409 Public &amp; Charter Schools</tspan></text>
	</g>
	<g id="BK_x5F_">
		<text transform="matrix(1 0 0 1 740.5552 72.1893)"><tspan x="0" y="0" class="st5 st2 st3">11 Impact Schools</tspan><tspan x="0" y="14.4" class="st4 st2 st3">538 Public &amp; Charter Schools</tspan></text>
	</g>
</g>
<g id="boro">
	<g id="BK">
		<text transform="matrix(1 0 0 1 30.292 84.9428)" class="st4 st2 st7">Brooklyn </text>
		<rect x="130.1" y="69.2" class="st8" width="594.4" height="15.1"/>
		<rect x="724.4" y="69.2" class="st5" width="10.4" height="15.1"/>
	</g>
	<g id="BX">
		<text transform="matrix(1 0 0 1 58.833 148.9292)" class="st4 st2 st7">Bronx </text>
		<rect x="130.1" y="132.1" class="st8" width="451" height="17.2"/>
		<rect x="581" y="132.1" class="st5" width="5.2" height="17.2"/>
	</g>
	<g id="SI">
		<text transform="matrix(1 0 0 1 0 116.5392)" class="st4 st2 st7">Staten Island </text>
		<rect x="130.1" y="99.7" class="st8" width="80.8" height="17.2"/>
		<rect x="210.9" y="99.7" class="st5" width="7.8" height="17.2"/>
	</g>
	<g id="QNS">
		<text transform="matrix(1 0 0 1 48.0947 22.5604)" class="st4 st2 st7">Queens </text>
		<rect x="130.1" y="6.8" class="st8" width="375.4" height="15.1"/>
		<rect x="505.5" y="6.8" class="st5" width="20.9" height="15.1"/>
	</g>
	<g id="MN">
		<text transform="matrix(1 0 0 1 20.6104 53.7602)" class="st4 st2 st7">Manhattan </text>
		<rect x="130.1" y="36.9" class="st8" width="383.2" height="17.2"/>
		<rect x="513.3" y="36.9" class="st5" width="13" height="17.2"/>
	</g>
</g>
</svg>
